<?xml version="1.0" encoding="UTF-8" standalone="no"?>
<!-- Created with Inkscape (http://www.inkscape.org/) -->

<svg
   width="64"
   height="64"
   viewBox="0 0 16.933333 16.933333"
   version="1.1"
   id="svg5"
   inkscape:version="1.2.2 (b0a8486541, 2022-12-01)"
   sodipodi:docname="logo.svg"
   xmlns:inkscape="http://www.inkscape.org/namespaces/inkscape"
   xmlns:sodipodi="http://sodipodi.sourceforge.net/DTD/sodipodi-0.dtd"
   xmlns="http://www.w3.org/2000/svg"
   xmlns:svg="http://www.w3.org/2000/svg">
  <sodipodi:namedview
     id="namedview7"
     pagecolor="#ffffff"
     bordercolor="#000000"
     borderopacity="0.25"
     inkscape:showpageshadow="2"
     inkscape:pageopacity="0.0"
     inkscape:pagecheckerboard="true"
     inkscape:deskcolor="#d1d1d1"
     inkscape:document-units="mm"
     showgrid="false"
     inkscape:zoom="7.6684624"
     inkscape:cx="35.404751"
     inkscape:cy="48.901589"
     inkscape:window-width="1360"
     inkscape:window-height="708"
     inkscape:window-x="0"
     inkscape:window-y="0"
     inkscape:window-maximized="1"
     inkscape:current-layer="layer3" />
  <defs
     id="defs2" />
  <g
     inkscape:label="Layer 1"
     inkscape:groupmode="layer"
     id="layer1" />
  <g
     inkscape:groupmode="layer"
     id="layer2"
     inkscape:label="Layer 2">
    <path
       d="m 15.88287,3.8868452 c 0,0 -1.529068,-2.5417089 -3.67782,-2.6614827 0,0 0.08172,-0.29594737 0.847082,-0.41165037 0,0 -3.9621652,-1.2608264 -4.9489643,1.59543567 -0.668496,1.9346996 0.6112847,3.7981745 1.3085311,4.3342503 2.8087002,2.160293 2.3038482,3.9595209 1.7255892,4.8639299 C 12.331946,8.7522291 9.4421078,7.4512861 8.5720599,7.1323731 8.3870204,7.0643431 8.1113658,6.8791617 7.987318,6.7262469 7.6716033,6.3366894 7.6247111,5.9250389 7.6213676,5.7401461 7.6206097,5.698567 7.5724081,5.6758903 7.5395085,5.7014857 7.0934656,6.0483059 6.7965601,6.6457233 6.7965601,6.6457233 5.8660446,6.8858531 5.7923774,8.3719801 5.9299427,8.4382641 6.5103815,8.7167671 7.5215123,8.3277991 7.5215123,8.3277991 7.4308974,8.6714231 7.3015883,8.8865521 7.1681214,9.0205701 6.9921525,9.1973251 6.7325733,9.2644791 6.4925902,9.1964531 5.2025485,8.8313161 5.0469,9.5191441 5.0469,9.7392151 c 0,0.03343 0.036399,0.05408 0.065203,0.03692 0.5478206,-0.325597 0.6993692,-0.231117 0.9693837,-0.07152 0.068137,0.04011 0.5022089,0.4959569 0.8576063,0.6942239 0.3205694,0.17879 0.9593839,-0.389265 0.9593839,-0.389265 -0.3533635,1.160238 0.3769677,1.884697 0.3769677,1.884697 -1.2179149,-0.05785 -0.8989438,0.522121 -0.8989438,0.522121 H 9.901755 c 0.112773,0 0.177248,-0.161346 0.204722,-0.159602 0.360397,0.02268 0.727046,-0.204663 0.727046,-0.204663 1.003425,-0.19565 2.569907,-0.930283 2.483972,-2.5946179 -0.135127,-2.6178775 -2.597671,-4.3970448 0.36252,-5.2575579 0,0 -1.092503,-0.5735779 -2.183434,0.2456538 0,0 1.119277,-1.8634744 4.386289,-0.5587525"
       style="fill:#da763d;fill-opacity:1;fill-rule:nonzero;stroke:#000000;stroke-width:0.152807;stroke-dasharray:none;stroke-opacity:1"
       id="path201" />
  </g>
  <g
     inkscape:groupmode="layer"
     id="layer3"
     inkscape:label="Layer 3">
    <path
       id="path589"
       style="fill:#f43506;fill-opacity:0.9999674;stroke:#585858;stroke-width:0.164199;stroke-linecap:round;stroke-linejoin:round;stroke-miterlimit:10;stroke-dasharray:none;stroke-opacity:1"
       d="m 13.259911,12.935426 c 0,0 0.1254,0.264395 0.01596,0.749973 M 8.6057947,12.502647 c 0,0 0.7537464,0.01791 0.8142645,-0.56854 0,0 0.4564258,0.127645 0.6291658,-0.455916 0,0 0.60096,0.15681 0.733163,-0.408488 0,0 0.588991,0.18506 0.762255,-0.320979 0,0 0.459317,0.270094 0.773882,-0.13565 0,0 0.502577,0.200021 0.734072,-0.123746 m -4.5199626,1.547979 c 0,0 0.5328399,0.01343 0.665058,-0.542604 0,0 0.4564206,0.127645 0.6291666,-0.455917 0,0 0.600956,0.156865 0.733174,-0.40849 0,0 0.589008,0.185116 0.762217,-0.32098 0,0 0.459372,0.270153 0.773936,-0.13565 0,0 0.51985,0.174368 0.693608,-0.04788 m 0.402621,1.270919 c 0,0 0.249645,-0.552967 -0.428117,-1.299486 0,0 -0.784188,-0.5252779 -2.569614,0.248875 0,0 -2.0835609,0.884751 -1.5888893,2.156548 0,0 0.1525225,0.470007 0.6139069,0.497697 0,0 0.2401962,-0.663561 1.7332084,-1.382446 0,0 1.617451,-0.705012 2.239505,-0.221188 z m -3.9881038,1.603646 c 0,0 0.1470993,2.018315 2.9999458,2.515962 0,0 0.362925,0.06409 0.544632,0.110585 0,0 0.25606,0.08296 0.286821,-0.24882 0,0 0.169317,-0.466006 0.390011,-0.940018 0,0 0.663725,-0.967707 -0.248658,-3.041349 0,0 0.249645,-0.55297 -0.428174,-1.299487 0,0 -0.784188,-0.5252781 -2.569589,0.248876 0,0 -2.0835672,0.884748 -1.5888957,2.156547 0,0 0.1525273,0.470008 0.6139069,0.497698 z M 10.456669,8.954641 C 10.244068,9.1260424 9.77985,9.3812241 9.796513,9.6843273 c 0.0071,0.1290638 0.09958,0.2486576 0.125359,0.3784417 0.02474,0.124529 0.03062,0.314892 -6.67e-4,0.436067 0.13184,-0.07665 0.288958,-0.148973 0.418184,-0.236758 0.246649,-0.167557 0.03558,-0.232699 -0.0955,-0.3996622 C 9.972614,9.516872 10.381667,9.274741 10.47404,8.954641" />
    <path
       id="path589-3"
       style="fill:#f43506;fill-opacity:1;stroke:#585858;stroke-width:0.139952;stroke-linecap:round;stroke-linejoin:round;stroke-miterlimit:10;stroke-dasharray:none;stroke-opacity:1"
       d="m 5.2965082,14.529235 c 0,0 -0.1470366,0.201462 -0.5552613,0.316979 M 3.7277687,10.867149 c 0,0 0.2931457,0.571863 0.7570278,0.378674 0,0 0.090026,0.39379 0.5973858,0.285834 0,0 0.126965,0.513914 0.6041584,0.383022 0,0 0.1009371,0.516438 0.5504446,0.440404 0,0 -0.015497,0.453893 0.4163562,0.524489 0,0 0.054584,0.457796 0.3912487,0.499511 M 4.0465664,10.62309 c 0,0 0.2066553,0.404573 0.6769161,0.27746 0,0 0.090024,0.393788 0.5973873,0.285836 0,0 0.1269217,0.513932 0.6041646,0.383028 0,0 0.1009023,0.516474 0.5504288,0.440376 0,0 -0.015519,0.453958 0.4163782,0.52453 0,0 0.080824,0.460301 0.3179677,0.500057 m -0.7882032,0.818478 c 0,0 0.5157233,-0.03791 0.7992307,-0.849195 0,0 0.074507,-0.801019 -1.2315176,-1.823493 0,0 -1.510122,-1.2008059 -2.2615441,-0.313021 0,0 -0.2900159,0.305403 -0.1231042,0.662254 0,0 0.5947188,-0.08996 1.7404159,0.735961 0,0 1.1859187,0.924779 1.0765193,1.587494 z M 3.5984022,11.517878 c 0,0 -1.451949,0.931064 -0.6644026,3.270328 0,0 0.099601,0.297909 0.1386794,0.452923 0,0 0.042005,0.225537 0.3030283,0.113639 0,0 0.4179161,-0.06271 0.862725,-0.09019 0,0 0.9947881,0.103566 2.1769252,-1.423218 0,0 0.5157258,-0.03791 0.7992087,-0.849237 0,0 0.074507,-0.801019 -1.2315088,-1.823475 0,0 -1.5101227,-1.200811 -2.2615459,-0.313028 0,0 -0.2900147,0.305409 -0.1231049,0.662257 z m 3.5397065,-0.707402 c -0.2148529,-0.08953 -0.5947967,-0.333458 -0.815052,-0.197701 -0.093798,0.05778 -0.1457528,0.175719 -0.2324783,0.247816 -0.083215,0.06917 -0.2234099,0.151007 -0.3268986,0.176855 0.111032,0.06759 0.2291091,0.15585 0.3474209,0.216939 0.2258215,0.116603 0.1887695,-0.068 0.2605161,-0.234082 0.1484903,-0.343733 0.4962218,-0.135818 0.7735557,-0.196817" />
    <path
       id="path589-3-6"
       style="fill:#f43506;fill-opacity:1;stroke:#585858;stroke-width:0.101908;stroke-linecap:round;stroke-linejoin:round;stroke-miterlimit:10;stroke-dasharray:none;stroke-opacity:1"
       d="m 8.6548013,13.525011 c 0,0 0.041741,0.176749 -0.087751,0.457218 M 5.8865282,12.657678 c 0,0 0.4551089,0.108792 0.5680312,-0.239244 0,0 0.260412,0.136767 0.4410639,-0.194942 0,0 0.3443389,0.173244 0.498017,-0.152649 0,0 0.3334047,0.188834 0.5043032,-0.09576 0,0 0.2436586,0.223594 0.4872793,0.01823 0,0 0.2790185,0.186685 0.4615747,0.02027 M 5.9025883,12.36577 c 0,0 0.3216257,0.07739 0.4741095,-0.24289 0,0 0.2604095,0.136766 0.4410655,-0.194943 0,0 0.3443289,0.173277 0.4980229,-0.152649 0,0 0.3334076,0.188871 0.5042806,-0.09576 0,0 0.2436836,0.223635 0.4873132,0.01823 0,0 0.2928353,0.17336 0.4271592,0.06106 m 0.079214,0.82361 c 0,0 0.2233494,-0.303153 -0.090987,-0.844259 0,0 -0.4076661,-0.420666 -1.5917901,-0.182819 0,0 -1.3794289,0.266231 -1.2444593,1.102336 0,0 0.031498,0.305055 0.3079055,0.381804 0,0 0.2319859,-0.371495 1.231469,-0.613795 0,0 1.0732019,-0.217712 1.3878559,0.156733 z M 6.185088,13.037505 c 0,0 -0.1729567,1.243993 1.4937288,1.916662 0,0 0.2119259,0.08605 0.3161606,0.137873 0,0 0.1446201,0.08362 0.2063947,-0.11374 0,0 0.1632986,-0.260815 0.3588219,-0.51981 0,0 0.5285332,-0.50105 0.2442414,-1.878049 0,0 0.2233494,-0.303153 -0.091012,-0.844268 0,0 -0.4076648,-0.420664 -1.5917752,-0.182815 0,0 -1.379432,0.266231 -1.2444634,1.102333 0,0 0.0315,0.305059 0.3079064,0.381808 z M 7.4707669,10.74494 c -0.1512932,0.07639 -0.4661737,0.17095 -0.4954417,0.357062 -0.012478,0.07924 0.028123,0.163844 0.02691,0.245957 -0.00117,0.0788 -0.022331,0.195081 -0.057062,0.264555 0.089975,-0.02939 0.1947197,-0.05287 0.2845496,-0.08935 0.1714589,-0.06966 0.051823,-0.1366 -0.00603,-0.254957 -0.1197378,-0.24495 0.1599686,-0.338749 0.2576173,-0.52101" />
  </g>
</svg>
